<svg width="428" height="140" viewBox="0 0 428 140" fill="none" xmlns="http://www.w3.org/2000/svg">
<rect width="429" height="140" fill="#23272A"/>
<g clip-path="url(#clip0_1_118)">
<path d="M166.97 53.2024C164.358 51.9921 161.583 51.11 158.688 50.6177C158.323 51.2536 157.918 52.1152 157.635 52.7921C154.555 52.3408 151.497 52.3408 148.46 52.7921C148.177 52.1152 147.751 51.2536 147.407 50.6177C144.491 51.11 141.717 51.9921 139.123 53.2024C133.879 61.0386 132.461 68.6902 133.17 76.2392C136.653 78.8034 140.014 80.3625 143.317 81.3883C144.127 80.2805 144.856 79.0906 145.483 77.8394C144.289 77.388 143.155 76.8341 142.061 76.1777C142.345 75.9727 142.628 75.747 142.892 75.5213C149.493 78.5779 156.643 78.5779 163.163 75.5213C163.446 75.747 163.71 75.9727 163.993 76.1777C162.9 76.8341 161.766 77.388 160.571 77.8394C161.199 79.0906 161.928 80.2805 162.738 81.3883C166.038 80.3625 169.42 78.8034 172.884 76.2392C173.755 67.5005 171.505 59.9104 166.97 53.2024ZM146.395 71.5826C144.41 71.5826 142.79 69.757 142.79 67.521C142.79 65.285 144.37 63.4592 146.395 63.4592C148.399 63.4592 150.039 65.285 149.999 67.521C149.999 69.757 148.399 71.5826 146.395 71.5826ZM159.7 71.5826C157.716 71.5826 156.094 69.757 156.094 67.521C156.094 65.285 157.675 63.4592 159.7 63.4592C161.705 63.4592 163.345 65.285 163.305 67.521C163.305 69.757 161.725 71.5826 159.7 71.5826Z" fill="white"/>
<path d="M186.917 57.0581H195.525C197.59 57.0581 199.352 57.3863 200.79 58.0427C202.227 58.6992 203.3 59.6019 204.009 60.7711C204.718 61.9404 205.082 63.2737 205.082 64.7918C205.082 66.2687 204.718 67.6022 203.969 68.8124C203.219 70.0023 202.086 70.9663 200.567 71.6638C199.048 72.3613 197.165 72.7101 194.917 72.7101H186.917V57.0581ZM194.816 68.7304C196.213 68.7304 197.286 68.3816 198.036 67.6637C198.785 66.9662 199.17 65.9815 199.17 64.7713C199.17 63.643 198.825 62.7403 198.157 62.0635C197.489 61.3865 196.477 61.0378 195.12 61.0378H192.427V68.7304H194.816Z" fill="white"/>
<path d="M218.489 72.6907C217.294 72.383 216.221 71.9316 215.27 71.3162V67.6032C215.999 68.1776 216.95 68.6289 218.165 68.9982C219.38 69.3674 220.555 69.5521 221.689 69.5521C222.215 69.5521 222.62 69.4905 222.883 69.3469C223.146 69.2033 223.288 69.0392 223.288 68.8341C223.288 68.6084 223.207 68.4238 223.065 68.2802C222.924 68.1365 222.64 68.0135 222.215 67.8904L219.562 67.2956C218.044 66.9468 216.97 66.434 216.322 65.8185C215.675 65.2031 215.371 64.3621 215.371 63.3364C215.371 62.4748 215.654 61.7158 216.201 61.0799C216.768 60.4439 217.558 59.9516 218.59 59.6028C219.623 59.2542 220.818 59.0696 222.215 59.0696C223.45 59.0696 224.584 59.1927 225.617 59.4799C226.649 59.7464 227.5 60.0952 228.168 60.5055V64.0134C227.48 63.6031 226.67 63.2748 225.779 63.0287C224.868 62.7825 223.936 62.6594 222.984 62.6594C221.607 62.6594 220.919 62.9056 220.919 63.3774C220.919 63.6031 221.02 63.7672 221.243 63.8903C221.466 64.0134 221.85 64.1159 222.417 64.239L224.625 64.6493C226.062 64.8954 227.135 65.3467 227.844 65.9826C228.553 66.6186 228.897 67.5416 228.897 68.793C228.897 70.147 228.31 71.2341 227.135 72.0137C225.961 72.8138 224.301 73.2034 222.154 73.2034C220.899 73.1624 219.684 72.9983 218.489 72.6907Z" fill="white"/>
<path d="M234.366 72.2193C233.111 71.5834 232.139 70.7424 231.511 69.6757C230.863 68.6089 230.56 67.3986 230.56 66.0447C230.56 64.7114 230.884 63.501 231.552 62.4549C232.22 61.3881 233.192 60.5675 234.468 59.9522C235.743 59.3573 237.282 59.0496 239.064 59.0496C241.271 59.0496 243.094 59.5214 244.552 60.4649V64.5472C244.045 64.1985 243.438 63.8908 242.749 63.6856C242.061 63.46 241.332 63.3574 240.563 63.3574C239.186 63.3574 238.133 63.6036 237.343 64.1164C236.573 64.6293 236.189 65.2858 236.189 66.1062C236.189 66.9063 236.553 67.5628 237.323 68.0756C238.072 68.5884 239.165 68.8551 240.583 68.8551C241.312 68.8551 242.041 68.7525 242.749 68.5268C243.458 68.3012 244.086 68.0551 244.592 67.7269V71.686C242.972 72.6707 241.089 73.163 238.963 73.163C237.161 73.163 235.642 72.8348 234.366 72.2193Z" fill="white"/>
<path d="M250.325 72.2193C249.049 71.5834 248.077 70.7424 247.409 69.6551C246.741 68.5679 246.396 67.3576 246.396 66.0036C246.396 64.6703 246.741 63.46 247.409 62.4138C248.077 61.3676 249.049 60.547 250.304 59.9522C251.56 59.3573 253.078 59.0496 254.822 59.0496C256.563 59.0496 258.082 59.3368 259.338 59.9522C260.593 60.547 261.565 61.3676 262.233 62.4138C262.901 63.46 263.225 64.6498 263.225 66.0036C263.225 67.3371 262.901 68.5679 262.233 69.6551C261.565 70.7424 260.613 71.6039 259.338 72.2193C258.062 72.8348 256.563 73.163 254.822 73.163C253.099 73.163 251.6 72.8348 250.325 72.2193ZM257.029 68.2601C257.556 67.7269 257.839 66.9884 257.839 66.1062C257.839 65.2037 257.576 64.5062 257.029 63.9728C256.482 63.4394 255.753 63.1728 254.842 63.1728C253.891 63.1728 253.159 63.4394 252.613 63.9728C252.086 64.5062 251.803 65.2037 251.803 66.1062C251.803 67.0089 252.066 67.7269 252.613 68.2601C253.159 68.814 253.891 69.0807 254.842 69.0807C255.753 69.0602 256.503 68.7935 257.029 68.2601Z" fill="white"/>
<path d="M276.772 59.8692V64.69C276.205 64.3207 275.476 64.1361 274.585 64.1361C273.411 64.1361 272.499 64.5054 271.872 65.2233C271.243 65.9413 270.919 67.0696 270.919 68.5875V72.6904H265.513V59.6435H270.819V63.8079C271.102 62.2898 271.588 61.1616 272.236 60.4436C272.884 59.7256 273.735 59.3359 274.767 59.3359C275.536 59.3359 276.205 59.5206 276.772 59.8692Z" fill="white"/>
<path d="M295 56.6074V72.7106H289.594V69.7772C289.127 70.885 288.439 71.7261 287.507 72.3003C286.575 72.8748 285.42 73.162 284.043 73.162C282.828 73.162 281.755 72.8542 280.843 72.2593C279.933 71.6645 279.225 70.8234 278.739 69.7772C278.253 68.7105 278.01 67.5207 278.01 66.2079C277.989 64.8334 278.253 63.6026 278.799 62.5154C279.325 61.4282 280.095 60.5871 281.067 59.9717C282.039 59.3562 283.152 59.0485 284.407 59.0485C286.98 59.0485 288.703 60.1768 289.594 62.4538V56.6074H295ZM288.784 68.1566C289.33 67.6233 289.613 66.9052 289.613 66.0438C289.613 65.2026 289.351 64.5257 288.803 64.0129C288.257 63.5001 287.528 63.2334 286.615 63.2334C285.703 63.2334 284.974 63.5001 284.428 64.0334C283.881 64.5667 283.618 65.2437 283.618 66.1053C283.618 66.9668 283.881 67.6438 284.428 68.1771C284.974 68.7105 285.684 68.9772 286.594 68.9772C287.507 68.9772 288.236 68.7105 288.784 68.1566Z" fill="white"/>
<path d="M210.066 60.4238C211.619 60.4238 212.88 59.2757 212.88 57.8596C212.88 56.4434 211.619 55.2954 210.066 55.2954C208.51 55.2954 207.251 56.4434 207.251 57.8596C207.251 59.2757 208.51 60.4238 210.066 60.4238Z" fill="white"/>
<path d="M212.88 62.1868C211.159 62.9457 209.013 62.9662 207.251 62.1868V72.7103H212.88V62.1868Z" fill="white"/>
</g>
<defs>
<clipPath id="clip0_1_118">
<rect width="162" height="45" fill="white" transform="translate(133 44)"/>
</clipPath>
</defs>
</svg>
